<ttFont>
    <TTGlyph name=".notdef" xMin="193" yMin="0" xMax="1034" yMax="1462">
      <contour>
        <pt x="193" y="1462" on="1"/>
        <pt x="1034" y="1462" on="1"/>
        <pt x="1034" y="0" on="1"/>
        <pt x="193" y="0" on="1"/>
      </contour>
      <contour>
        <pt x="297" y="104" on="1"/>
        <pt x="930" y="104" on="1"/>
        <pt x="930" y="1358" on="1"/>
        <pt x="297" y="1358" on="1"/>
      </contour>
    </TTGlyph>
    <TTGlyph name="glyph00052" xMin="-1401" yMin="-492" xMax="-180" yMax="30">
      <contour>
        <pt x="-180" y="-106" on="1"/>
        <pt x="-180" y="-216" on="0"/>
        <pt x="-248" y="-364" on="0"/>
        <pt x="-394" y="-454" on="0"/>
        <pt x="-623" y="-492" on="0"/>
        <pt x="-784" y="-492" on="1"/>
        <pt x="-956" y="-492" on="0"/>
        <pt x="-1192" y="-457" on="0"/>
        <pt x="-1337" y="-377" on="0"/>
        <pt x="-1401" y="-245" on="0"/>
        <pt x="-1401" y="-148" on="1"/>
        <pt x="-1401" y="30" on="1"/>
        <pt x="-1225" y="30" on="1"/>
        <pt x="-1225" y="-140" on="1"/>
        <pt x="-1225" y="-203" on="0"/>
        <pt x="-1179" y="-288" on="0"/>
        <pt x="-1077" y="-340" on="0"/>
        <pt x="-912" y="-362" on="0"/>
        <pt x="-793" y="-362" on="1"/>
        <pt x="-665" y="-362" on="0"/>
        <pt x="-493" y="-340" on="0"/>
        <pt x="-390" y="-283" on="0"/>
        <pt x="-346" y="-183" on="0"/>
        <pt x="-346" y="-106" on="1"/>
      </contour>
    </TTGlyph>
    <TTGlyph name="glyph00053" xMin="-1401" yMin="-492" xMax="-180" yMax="30">
      <contour>
        <pt x="-895" y="-180" on="1"/>
        <pt x="-895" y="-74" on="0"/>
        <pt x="-788" y="-74" on="1"/>
        <pt x="-739" y="-74" on="0"/>
        <pt x="-684" y="-126" on="0"/>
        <pt x="-684" y="-180" on="1"/>
        <pt x="-684" y="-231" on="0"/>
        <pt x="-737" y="-287" on="0"/>
        <pt x="-788" y="-287" on="1"/>
        <pt x="-842" y="-287" on="0"/>
        <pt x="-895" y="-231" on="0"/>
      </contour>
      <contour>
        <pt x="-180" y="-106" on="1"/>
        <pt x="-180" y="-216" on="0"/>
        <pt x="-248" y="-364" on="0"/>
        <pt x="-394" y="-454" on="0"/>
        <pt x="-623" y="-492" on="0"/>
        <pt x="-784" y="-492" on="1"/>
        <pt x="-956" y="-492" on="0"/>
        <pt x="-1192" y="-457" on="0"/>
        <pt x="-1337" y="-377" on="0"/>
        <pt x="-1401" y="-245" on="0"/>
        <pt x="-1401" y="-148" on="1"/>
        <pt x="-1401" y="30" on="1"/>
        <pt x="-1225" y="30" on="1"/>
        <pt x="-1225" y="-140" on="1"/>
        <pt x="-1225" y="-203" on="0"/>
        <pt x="-1179" y="-288" on="0"/>
        <pt x="-1077" y="-340" on="0"/>
        <pt x="-912" y="-362" on="0"/>
        <pt x="-793" y="-362" on="1"/>
        <pt x="-665" y="-362" on="0"/>
        <pt x="-493" y="-340" on="0"/>
        <pt x="-390" y="-283" on="0"/>
        <pt x="-346" y="-183" on="0"/>
        <pt x="-346" y="-106" on="1"/>
      </contour>
    </TTGlyph>
    <TTGlyph name="uniA900" xMin="180" yMin="-20" xMax="1401" yMax="1118">
      <contour>
        <pt x="1401" y="557" on="1"/>
        <pt x="1401" y="314" on="0"/>
        <pt x="1297" y="79" on="0"/>
        <pt x="1041" y="-20" on="0"/>
        <pt x="782" y="-20" on="1"/>
        <pt x="533" y="-20" on="0"/>
        <pt x="286" y="83" on="0"/>
        <pt x="180" y="323" on="0"/>
        <pt x="180" y="557" on="1"/>
        <pt x="180" y="805" on="0"/>
        <pt x="282" y="1028" on="0"/>
        <pt x="531" y="1118" on="0"/>
        <pt x="793" y="1118" on="1"/>
        <pt x="1053" y="1118" on="0"/>
        <pt x="1301" y="1018" on="0"/>
        <pt x="1401" y="784" on="0"/>
      </contour>
      <contour>
        <pt x="362" y="557" on="1"/>
        <pt x="362" y="369" on="0"/>
        <pt x="436" y="197" on="0"/>
        <pt x="614" y="123" on="0"/>
        <pt x="788" y="123" on="1"/>
        <pt x="968" y="123" on="0"/>
        <pt x="1145" y="194" on="0"/>
        <pt x="1219" y="362" on="0"/>
        <pt x="1219" y="557" on="1"/>
        <pt x="1219" y="742" on="0"/>
        <pt x="1142" y="908" on="0"/>
        <pt x="960" y="975" on="0"/>
        <pt x="786" y="975" on="1"/>
        <pt x="601" y="975" on="0"/>
        <pt x="431" y="911" on="0"/>
        <pt x="362" y="753" on="0"/>
      </contour>
    </TTGlyph>
    <TTGlyph name="uniA901" xMin="180" yMin="0" xMax="1401" yMax="1098">
      <contour>
        <pt x="768" y="0" on="1"/>
        <pt x="483" y="0" on="0"/>
        <pt x="263" y="61" on="0"/>
        <pt x="180" y="215" on="0"/>
        <pt x="180" y="387" on="1"/>
        <pt x="180" y="532" on="0"/>
        <pt x="295" y="678" on="0"/>
        <pt x="550" y="745" on="0"/>
        <pt x="772" y="745" on="1"/>
        <pt x="1086" y="745" on="0"/>
        <pt x="1229" y="698" on="1"/>
        <pt x="1229" y="956" on="1"/>
        <pt x="180" y="956" on="1"/>
        <pt x="180" y="1098" on="1"/>
        <pt x="1401" y="1098" on="1"/>
        <pt x="1401" y="494" on="1"/>
        <pt x="1229" y="494" on="1"/>
        <pt x="1209" y="544" on="0"/>
        <pt x="1116" y="584" on="0"/>
        <pt x="936" y="600" on="0"/>
        <pt x="766" y="600" on="1"/>
        <pt x="596" y="600" on="0"/>
        <pt x="431" y="568" on="0"/>
        <pt x="362" y="491" on="0"/>
        <pt x="362" y="387" on="1"/>
        <pt x="362" y="260" on="0"/>
        <pt x="413" y="174" on="0"/>
        <pt x="538" y="141" on="0"/>
        <pt x="672" y="141" on="1"/>
        <pt x="776" y="258" on="0"/>
        <pt x="945" y="369" on="0"/>
        <pt x="1148" y="420" on="0"/>
        <pt x="1290" y="420" on="1"/>
        <pt x="1401" y="420" on="1"/>
        <pt x="1401" y="268" on="1"/>
        <pt x="1401" y="171" on="0"/>
        <pt x="1340" y="53" on="0"/>
        <pt x="1217" y="0" on="0"/>
        <pt x="1104" y="0" on="1"/>
      </contour>
      <contour>
        <pt x="1108" y="141" on="1"/>
        <pt x="1164" y="141" on="0"/>
        <pt x="1225" y="201" on="0"/>
        <pt x="1225" y="254" on="1"/>
        <pt x="1225" y="285" on="1"/>
        <pt x="1136" y="281" on="0"/>
        <pt x="1027" y="259" on="0"/>
        <pt x="941" y="213" on="0"/>
        <pt x="858" y="141" on="1"/>
      </contour>
    </TTGlyph>
    <TTGlyph name="uniA902" xMin="180" yMin="0" xMax="1401" yMax="1098">
      <contour>
        <pt x="1210" y="1098" on="1"/>
        <pt x="1401" y="1098" on="1"/>
        <pt x="805" y="0" on="1"/>
        <pt x="774" y="0" on="1"/>
        <pt x="180" y="1098" on="1"/>
        <pt x="383" y="1098" on="1"/>
        <pt x="797" y="295" on="1"/>
      </contour>
    </TTGlyph>
    <TTGlyph name="uniA903" xMin="180" yMin="0" xMax="1401" yMax="1098">
      <contour>
        <pt x="1339" y="1071" on="1"/>
        <pt x="383" y="141" on="1"/>
        <pt x="569" y="141" on="1"/>
        <pt x="741" y="334" on="0"/>
        <pt x="1111" y="530" on="0"/>
        <pt x="1296" y="530" on="1"/>
        <pt x="1401" y="530" on="1"/>
        <pt x="1401" y="268" on="1"/>
        <pt x="1401" y="171" on="0"/>
        <pt x="1340" y="53" on="0"/>
        <pt x="1217" y="0" on="0"/>
        <pt x="1104" y="0" on="1"/>
        <pt x="180" y="0" on="1"/>
        <pt x="180" y="156" on="1"/>
        <pt x="999" y="956" on="1"/>
        <pt x="594" y="956" on="1"/>
        <pt x="466" y="956" on="0"/>
        <pt x="350" y="844" on="0"/>
        <pt x="350" y="739" on="1"/>
        <pt x="182" y="739" on="1"/>
        <pt x="182" y="872" on="0"/>
        <pt x="263" y="1028" on="0"/>
        <pt x="428" y="1098" on="0"/>
        <pt x="594" y="1098" on="1"/>
        <pt x="1339" y="1098" on="1"/>
      </contour>
      <contour>
        <pt x="1108" y="141" on="1"/>
        <pt x="1163" y="141" on="0"/>
        <pt x="1227" y="201" on="0"/>
        <pt x="1227" y="254" on="1"/>
        <pt x="1227" y="377" on="1"/>
        <pt x="1149" y="374" on="0"/>
        <pt x="1011" y="324" on="0"/>
        <pt x="885" y="245" on="0"/>
        <pt x="766" y="141" on="1"/>
      </contour>
    </TTGlyph>
    <TTGlyph name="uniA904" xMin="180" yMin="-10" xMax="1401" yMax="1118">
      <contour>
        <pt x="1225" y="317" on="1"/>
        <pt x="1225" y="975" on="1"/>
        <pt x="1046" y="975" on="0"/>
        <pt x="672" y="833" on="0"/>
        <pt x="382" y="586" on="0"/>
        <pt x="356" y="471" on="1"/>
        <pt x="180" y="471" on="1"/>
        <pt x="180" y="1098" on="1"/>
        <pt x="356" y="1098" on="1"/>
        <pt x="356" y="938" on="1"/>
        <pt x="356" y="799" on="0"/>
        <pt x="338" y="721" on="1"/>
        <pt x="348" y="719" on="1"/>
        <pt x="458" y="880" on="0"/>
        <pt x="983" y="1118" on="0"/>
        <pt x="1243" y="1118" on="1"/>
        <pt x="1401" y="1118" on="1"/>
        <pt x="1401" y="348" on="1"/>
        <pt x="1401" y="-10" on="0"/>
        <pt x="1065" y="-10" on="1"/>
        <pt x="1012" y="-10" on="1"/>
        <pt x="1012" y="137" on="1"/>
        <pt x="1079" y="137" on="1"/>
        <pt x="1145" y="137" on="0"/>
        <pt x="1225" y="230" on="0"/>
      </contour>
    </TTGlyph>
    <TTGlyph name="uniA905" xMin="180" yMin="0" xMax="1401" yMax="1098">
      <contour>
        <pt x="356" y="956" on="1"/>
        <pt x="356" y="141" on="1"/>
        <pt x="674" y="141" on="1"/>
        <pt x="674" y="0" on="1"/>
        <pt x="180" y="0" on="1"/>
        <pt x="180" y="1098" on="1"/>
        <pt x="1401" y="1098" on="1"/>
        <pt x="1401" y="956" on="1"/>
      </contour>
    </TTGlyph>
    <TTGlyph name="uniA906" xMin="180" yMin="-20" xMax="1401" yMax="1118">
      <contour>
        <pt x="850" y="219" on="1"/>
        <pt x="850" y="459" on="0"/>
        <pt x="1118" y="459" on="1"/>
        <pt x="1175" y="459" on="0"/>
        <pt x="1225" y="438" on="1"/>
        <pt x="1225" y="938" on="1"/>
        <pt x="356" y="410" on="1"/>
        <pt x="356" y="0" on="1"/>
        <pt x="180" y="0" on="1"/>
        <pt x="180" y="1098" on="1"/>
        <pt x="356" y="1098" on="1"/>
        <pt x="356" y="580" on="1"/>
        <pt x="1243" y="1118" on="1"/>
        <pt x="1401" y="1118" on="1"/>
        <pt x="1401" y="311" on="1"/>
        <pt x="1401" y="-20" on="0"/>
        <pt x="1122" y="-20" on="1"/>
        <pt x="850" y="-20" on="0"/>
      </contour>
      <contour>
        <pt x="1120" y="100" on="1"/>
        <pt x="1225" y="100" on="0"/>
        <pt x="1225" y="281" on="1"/>
        <pt x="1225" y="309" on="1"/>
        <pt x="1206" y="317" on="0"/>
        <pt x="1152" y="338" on="0"/>
        <pt x="1120" y="338" on="1"/>
        <pt x="1064" y="338" on="0"/>
        <pt x="995" y="274" on="0"/>
        <pt x="995" y="219" on="1"/>
        <pt x="995" y="164" on="0"/>
        <pt x="1065" y="100" on="0"/>
      </contour>
    </TTGlyph>
    <TTGlyph name="uniA907" xMin="180" yMin="-20" xMax="1401" yMax="1098">
      <contour>
        <pt x="907" y="1098" on="1"/>
        <pt x="1401" y="1098" on="1"/>
        <pt x="1401" y="557" on="1"/>
        <pt x="1401" y="314" on="0"/>
        <pt x="1297" y="79" on="0"/>
        <pt x="1041" y="-20" on="0"/>
        <pt x="782" y="-20" on="1"/>
        <pt x="533" y="-20" on="0"/>
        <pt x="286" y="83" on="0"/>
        <pt x="180" y="323" on="0"/>
        <pt x="180" y="557" on="1"/>
        <pt x="180" y="842" on="1"/>
        <pt x="356" y="842" on="1"/>
        <pt x="356" y="557" on="1"/>
        <pt x="356" y="369" on="0"/>
        <pt x="434" y="197" on="0"/>
        <pt x="615" y="123" on="0"/>
        <pt x="788" y="123" on="1"/>
        <pt x="971" y="123" on="0"/>
        <pt x="1151" y="196" on="0"/>
        <pt x="1225" y="368" on="0"/>
        <pt x="1225" y="557" on="1"/>
        <pt x="1225" y="954" on="1"/>
        <pt x="907" y="954" on="1"/>
      </contour>
    </TTGlyph>
    <TTGlyph name="uniA908" xMin="180" yMin="0" xMax="1401" yMax="1098">
      <contour>
        <pt x="1225" y="535" on="1"/>
        <pt x="1401" y="535" on="1"/>
        <pt x="1401" y="0" on="1"/>
        <pt x="180" y="0" on="1"/>
        <pt x="180" y="1098" on="1"/>
        <pt x="356" y="1098" on="1"/>
        <pt x="356" y="141" on="1"/>
        <pt x="1225" y="141" on="1"/>
      </contour>
    </TTGlyph>
    <TTGlyph name="uniA909" xMin="180" yMin="-20" xMax="1401" yMax="1098">
      <contour>
        <pt x="180" y="1098" on="1"/>
        <pt x="674" y="1098" on="1"/>
        <pt x="674" y="956" on="1"/>
        <pt x="356" y="956" on="1"/>
        <pt x="356" y="557" on="1"/>
        <pt x="356" y="369" on="0"/>
        <pt x="434" y="197" on="0"/>
        <pt x="615" y="123" on="0"/>
        <pt x="788" y="123" on="1"/>
        <pt x="971" y="123" on="0"/>
        <pt x="1160" y="198" on="0"/>
        <pt x="1225" y="363" on="0"/>
        <pt x="1225" y="557" on="1"/>
        <pt x="1225" y="842" on="1"/>
        <pt x="1401" y="842" on="1"/>
        <pt x="1401" y="557" on="1"/>
        <pt x="1401" y="314" on="0"/>
        <pt x="1297" y="79" on="0"/>
        <pt x="1041" y="-20" on="0"/>
        <pt x="782" y="-20" on="1"/>
        <pt x="533" y="-20" on="0"/>
        <pt x="286" y="83" on="0"/>
        <pt x="180" y="323" on="0"/>
        <pt x="180" y="557" on="1"/>
      </contour>
    </TTGlyph>
    <TTGlyph name="uniA90A" xMin="180" yMin="0" xMax="1401" yMax="1118">
      <contour>
        <pt x="700" y="1098" on="1"/>
        <pt x="700" y="976" on="1"/>
        <pt x="962" y="1118" on="0"/>
        <pt x="1243" y="1118" on="1"/>
        <pt x="1401" y="1118" on="1"/>
        <pt x="1401" y="0" on="1"/>
        <pt x="1225" y="0" on="1"/>
        <pt x="1225" y="977" on="1"/>
        <pt x="1094" y="977" on="0"/>
        <pt x="820" y="896" on="0"/>
        <pt x="700" y="819" on="1"/>
        <pt x="700" y="297" on="1"/>
        <pt x="700" y="145" on="0"/>
        <pt x="550" y="0" on="0"/>
        <pt x="399" y="0" on="1"/>
        <pt x="180" y="0" on="1"/>
        <pt x="180" y="111" on="1"/>
        <pt x="180" y="332" on="0"/>
        <pt x="358" y="717" on="0"/>
        <pt x="526" y="857" on="1"/>
        <pt x="526" y="954" on="1"/>
        <pt x="180" y="954" on="1"/>
        <pt x="180" y="1098" on="1"/>
      </contour>
      <contour>
        <pt x="332" y="141" on="1"/>
        <pt x="420" y="141" on="1"/>
        <pt x="469" y="141" on="0"/>
        <pt x="526" y="209" on="0"/>
        <pt x="526" y="266" on="1"/>
        <pt x="526" y="672" on="1"/>
        <pt x="336" y="452" on="0"/>
      </contour>
    </TTGlyph>
    <TTGlyph name="uniA90B" xMin="180" yMin="-20" xMax="1401" yMax="1118">
      <contour>
        <pt x="180" y="572" on="1"/>
        <pt x="180" y="616" on="1"/>
        <pt x="180" y="804" on="0"/>
        <pt x="298" y="1022" on="0"/>
        <pt x="550" y="1118" on="0"/>
        <pt x="799" y="1118" on="1"/>
        <pt x="1048" y="1118" on="0"/>
        <pt x="1295" y="1015" on="0"/>
        <pt x="1401" y="775" on="0"/>
        <pt x="1401" y="541" on="1"/>
        <pt x="1401" y="309" on="0"/>
        <pt x="1292" y="79" on="0"/>
        <pt x="1039" y="-20" on="0"/>
        <pt x="788" y="-20" on="1"/>
        <pt x="532" y="-20" on="0"/>
        <pt x="291" y="64" on="0"/>
        <pt x="180" y="254" on="0"/>
        <pt x="180" y="420" on="1"/>
        <pt x="354" y="420" on="1"/>
        <pt x="354" y="306" on="0"/>
        <pt x="438" y="179" on="0"/>
        <pt x="618" y="123" on="0"/>
        <pt x="795" y="123" on="1"/>
        <pt x="936" y="123" on="0"/>
        <pt x="1091" y="157" on="0"/>
        <pt x="1178" y="233" on="0"/>
        <pt x="1217" y="371" on="0"/>
        <pt x="1219" y="526" on="1"/>
        <pt x="182" y="526" on="1"/>
      </contour>
      <contour>
        <pt x="793" y="975" on="1"/>
        <pt x="626" y="975" on="0"/>
        <pt x="448" y="922" on="0"/>
        <pt x="365" y="802" on="0"/>
        <pt x="356" y="668" on="1"/>
        <pt x="1213" y="668" on="1"/>
        <pt x="1204" y="789" on="0"/>
        <pt x="1117" y="919" on="0"/>
        <pt x="944" y="975" on="0"/>
      </contour>
    </TTGlyph>
    <TTGlyph name="uniA90C" xMin="180" yMin="0" xMax="1401" yMax="1118">
      <contour>
        <pt x="407" y="424" on="1"/>
        <pt x="374" y="319" on="0"/>
        <pt x="356" y="181" on="0"/>
        <pt x="356" y="109" on="1"/>
        <pt x="356" y="0" on="1"/>
        <pt x="180" y="0" on="1"/>
        <pt x="180" y="1098" on="1"/>
        <pt x="356" y="1098" on="1"/>
        <pt x="356" y="801" on="1"/>
        <pt x="356" y="672" on="0"/>
        <pt x="338" y="578" on="1"/>
        <pt x="348" y="575" on="1"/>
        <pt x="370" y="649" on="0"/>
        <pt x="424" y="743" on="0"/>
        <pt x="477" y="801" on="1"/>
        <pt x="617" y="948" on="0"/>
        <pt x="1031" y="1118" on="0"/>
        <pt x="1243" y="1118" on="1"/>
        <pt x="1401" y="1118" on="1"/>
        <pt x="1401" y="0" on="1"/>
        <pt x="1225" y="0" on="1"/>
        <pt x="1225" y="424" on="1"/>
      </contour>
      <contour>
        <pt x="1225" y="981" on="1"/>
        <pt x="1086" y="981" on="0"/>
        <pt x="804" y="886" on="0"/>
        <pt x="559" y="704" on="0"/>
        <pt x="473" y="565" on="1"/>
        <pt x="1225" y="565" on="1"/>
      </contour>
    </TTGlyph>
    <TTGlyph name="uniA90D" xMin="180" yMin="-20" xMax="1401" yMax="1118">
      <contour>
        <pt x="1401" y="426" on="1"/>
        <pt x="1401" y="259" on="0"/>
        <pt x="1285" y="67" on="0"/>
        <pt x="1032" y="-20" on="0"/>
        <pt x="782" y="-20" on="1"/>
        <pt x="533" y="-20" on="0"/>
        <pt x="286" y="83" on="0"/>
        <pt x="180" y="323" on="0"/>
        <pt x="180" y="557" on="1"/>
        <pt x="180" y="789" on="0"/>
        <pt x="286" y="1020" on="0"/>
        <pt x="535" y="1118" on="0"/>
        <pt x="793" y="1118" on="1"/>
        <pt x="1046" y="1118" on="0"/>
        <pt x="1288" y="1034" on="0"/>
        <pt x="1401" y="845" on="0"/>
        <pt x="1401" y="678" on="1"/>
        <pt x="1231" y="678" on="1"/>
        <pt x="1231" y="836" on="0"/>
        <pt x="1031" y="975" on="0"/>
        <pt x="786" y="975" on="1"/>
        <pt x="601" y="975" on="0"/>
        <pt x="431" y="911" on="0"/>
        <pt x="362" y="753" on="0"/>
        <pt x="362" y="557" on="1"/>
        <pt x="362" y="369" on="0"/>
        <pt x="436" y="197" on="0"/>
        <pt x="614" y="123" on="0"/>
        <pt x="788" y="123" on="1"/>
        <pt x="959" y="123" on="0"/>
        <pt x="1145" y="180" on="0"/>
        <pt x="1229" y="309" on="0"/>
        <pt x="1229" y="426" on="1"/>
      </contour>
    </TTGlyph>
    <TTGlyph name="uniA90E" xMin="180" yMin="0" xMax="1401" yMax="1118">
      <contour>
        <pt x="1225" y="557" on="1"/>
        <pt x="1225" y="732" on="0"/>
        <pt x="1151" y="903" on="0"/>
        <pt x="978" y="975" on="0"/>
        <pt x="795" y="975" on="1"/>
        <pt x="568" y="975" on="0"/>
        <pt x="356" y="866" on="0"/>
        <pt x="356" y="745" on="1"/>
        <pt x="356" y="643" on="0"/>
        <pt x="412" y="551" on="0"/>
        <pt x="498" y="496" on="1"/>
        <pt x="581" y="615" on="0"/>
        <pt x="710" y="707" on="0"/>
        <pt x="795" y="707" on="1"/>
        <pt x="882" y="707" on="0"/>
        <pt x="1001" y="603" on="0"/>
        <pt x="1001" y="518" on="1"/>
        <pt x="1001" y="452" on="0"/>
        <pt x="934" y="351" on="0"/>
        <pt x="817" y="293" on="0"/>
        <pt x="752" y="293" on="1"/>
        <pt x="706" y="293" on="0"/>
        <pt x="596" y="323" on="0"/>
        <pt x="555" y="348" on="1"/>
        <pt x="420" y="141" on="1"/>
        <pt x="748" y="141" on="1"/>
        <pt x="748" y="0" on="1"/>
        <pt x="180" y="0" on="1"/>
        <pt x="180" y="27" on="1"/>
        <pt x="434" y="401" on="1"/>
        <pt x="326" y="463" on="0"/>
        <pt x="233" y="556" on="0"/>
        <pt x="180" y="673" on="0"/>
        <pt x="180" y="752" on="1"/>
        <pt x="180" y="939" on="0"/>
        <pt x="477" y="1118" on="0"/>
        <pt x="788" y="1118" on="1"/>
        <pt x="1055" y="1118" on="0"/>
        <pt x="1302" y="1028" on="0"/>
        <pt x="1401" y="807" on="0"/>
        <pt x="1401" y="557" on="1"/>
        <pt x="1401" y="0" on="1"/>
        <pt x="1225" y="0" on="1"/>
      </contour>
      <contour>
        <pt x="788" y="602" on="1"/>
        <pt x="753" y="602" on="0"/>
        <pt x="690" y="548" on="0"/>
        <pt x="614" y="436" on="1"/>
        <pt x="623" y="427" on="0"/>
        <pt x="716" y="395" on="0"/>
        <pt x="750" y="395" on="1"/>
        <pt x="805" y="395" on="0"/>
        <pt x="879" y="451" on="0"/>
        <pt x="879" y="504" on="1"/>
        <pt x="879" y="552" on="0"/>
        <pt x="826" y="602" on="0"/>
      </contour>
    </TTGlyph>
    <TTGlyph name="uniA90F" xMin="180" yMin="-8" xMax="1401" yMax="1098">
      <contour>
        <pt x="1401" y="0" on="1"/>
        <pt x="1225" y="0" on="1"/>
        <pt x="1194" y="165" on="0"/>
        <pt x="991" y="455" on="0"/>
        <pt x="689" y="631" on="0"/>
        <pt x="530" y="631" on="1"/>
        <pt x="530" y="301" on="1"/>
        <pt x="530" y="128" on="0"/>
        <pt x="377" y="-8" on="0"/>
        <pt x="180" y="-8" on="1"/>
        <pt x="180" y="133" on="1"/>
        <pt x="259" y="133" on="0"/>
        <pt x="354" y="215" on="0"/>
        <pt x="354" y="287" on="1"/>
        <pt x="354" y="768" on="1"/>
        <pt x="545" y="768" on="1"/>
        <pt x="691" y="768" on="0"/>
        <pt x="984" y="648" on="0"/>
        <pt x="1195" y="438" on="0"/>
        <pt x="1233" y="309" on="1"/>
        <pt x="1243" y="311" on="1"/>
        <pt x="1225" y="405" on="0"/>
        <pt x="1225" y="535" on="1"/>
        <pt x="1225" y="956" on="1"/>
        <pt x="180" y="956" on="1"/>
        <pt x="180" y="1098" on="1"/>
        <pt x="1401" y="1098" on="1"/>
      </contour>
    </TTGlyph>
    <TTGlyph name="uniA910" xMin="180" yMin="-492" xMax="1401" yMax="1118">
      <contour>
        <pt x="1110" y="1118" on="1"/>
        <pt x="1249" y="1118" on="0"/>
        <pt x="1401" y="982" on="0"/>
        <pt x="1401" y="840" on="1"/>
        <pt x="1401" y="764" on="0"/>
        <pt x="1330" y="610" on="0"/>
        <pt x="1185" y="461" on="0"/>
        <pt x="1126" y="434" on="1"/>
        <pt x="1401" y="27" on="1"/>
        <pt x="1401" y="0" on="1"/>
        <pt x="834" y="0" on="1"/>
        <pt x="834" y="141" on="1"/>
        <pt x="1165" y="141" on="1"/>
        <pt x="958" y="451" on="1"/>
        <pt x="1103" y="533" on="0"/>
        <pt x="1225" y="714" on="0"/>
        <pt x="1225" y="834" on="1"/>
        <pt x="1225" y="898" on="0"/>
        <pt x="1145" y="975" on="0"/>
        <pt x="1081" y="975" on="1"/>
        <pt x="962" y="975" on="0"/>
        <pt x="682" y="827" on="0"/>
        <pt x="470" y="588" on="0"/>
        <pt x="356" y="282" on="0"/>
        <pt x="356" y="109" on="1"/>
        <pt x="356" y="-492" on="1"/>
        <pt x="180" y="-492" on="1"/>
        <pt x="180" y="1098" on="1"/>
        <pt x="356" y="1098" on="1"/>
        <pt x="356" y="801" on="1"/>
        <pt x="356" y="672" on="0"/>
        <pt x="338" y="578" on="1"/>
        <pt x="348" y="575" on="1"/>
        <pt x="377" y="673" on="0"/>
        <pt x="471" y="802" on="0"/>
        <pt x="647" y="958" on="0"/>
        <pt x="821" y="1060" on="0"/>
        <pt x="1010" y="1118" on="0"/>
      </contour>
    </TTGlyph>
    <TTGlyph name="uniA911" xMin="180" yMin="-492" xMax="1401" yMax="1118">
      <contour>
        <pt x="764" y="-492" on="1"/>
        <pt x="509" y="-492" on="0"/>
        <pt x="273" y="-406" on="0"/>
        <pt x="180" y="-189" on="0"/>
        <pt x="180" y="70" on="1"/>
        <pt x="180" y="422" on="1"/>
        <pt x="356" y="422" on="1"/>
        <pt x="356" y="303" on="0"/>
        <pt x="435" y="178" on="0"/>
        <pt x="613" y="123" on="0"/>
        <pt x="793" y="123" on="1"/>
        <pt x="929" y="123" on="0"/>
        <pt x="1092" y="161" on="0"/>
        <pt x="1181" y="242" on="0"/>
        <pt x="1219" y="393" on="0"/>
        <pt x="1219" y="557" on="1"/>
        <pt x="1219" y="740" on="0"/>
        <pt x="1147" y="906" on="0"/>
        <pt x="974" y="975" on="0"/>
        <pt x="795" y="975" on="1"/>
        <pt x="554" y="975" on="0"/>
        <pt x="352" y="833" on="0"/>
        <pt x="352" y="674" on="1"/>
        <pt x="182" y="674" on="1"/>
        <pt x="182" y="840" on="0"/>
        <pt x="299" y="1031" on="0"/>
        <pt x="550" y="1118" on="0"/>
        <pt x="788" y="1118" on="1"/>
        <pt x="1044" y="1118" on="0"/>
        <pt x="1295" y="1021" on="0"/>
        <pt x="1401" y="786" on="0"/>
        <pt x="1401" y="557" on="1"/>
        <pt x="1401" y="320" on="0"/>
        <pt x="1293" y="84" on="0"/>
        <pt x="1042" y="-20" on="0"/>
        <pt x="799" y="-20" on="1"/>
        <pt x="625" y="-20" on="0"/>
        <pt x="483" y="-1" on="0"/>
        <pt x="399" y="44" on="0"/>
        <pt x="365" y="94" on="1"/>
        <pt x="356" y="90" on="1"/>
        <pt x="365" y="43" on="0"/>
        <pt x="365" y="0" on="1"/>
        <pt x="365" y="-155" on="0"/>
        <pt x="431" y="-291" on="0"/>
        <pt x="590" y="-348" on="0"/>
        <pt x="766" y="-348" on="1"/>
        <pt x="959" y="-348" on="0"/>
        <pt x="1119" y="-322" on="0"/>
        <pt x="1188" y="-257" on="0"/>
        <pt x="1188" y="-186" on="1"/>
        <pt x="1368" y="-186" on="1"/>
        <pt x="1368" y="-317" on="0"/>
        <pt x="1266" y="-441" on="0"/>
        <pt x="1026" y="-492" on="0"/>
      </contour>
    </TTGlyph>
    <TTGlyph name="uniA912" xMin="180" yMin="-20" xMax="1401" yMax="1098">
      <contour>
        <pt x="850" y="219" on="1"/>
        <pt x="850" y="330" on="0"/>
        <pt x="990" y="459" on="0"/>
        <pt x="1118" y="459" on="1"/>
        <pt x="1158" y="459" on="0"/>
        <pt x="1192" y="444" on="1"/>
        <pt x="1153" y="494" on="0"/>
        <pt x="1014" y="551" on="0"/>
        <pt x="922" y="551" on="1"/>
        <pt x="785" y="551" on="0"/>
        <pt x="523" y="390" on="0"/>
        <pt x="356" y="122" on="0"/>
        <pt x="356" y="0" on="1"/>
        <pt x="180" y="0" on="1"/>
        <pt x="180" y="1098" on="1"/>
        <pt x="356" y="1098" on="1"/>
        <pt x="1372" y="879" on="1"/>
        <pt x="1372" y="729" on="1"/>
        <pt x="356" y="946" on="1"/>
        <pt x="356" y="563" on="1"/>
        <pt x="356" y="434" on="0"/>
        <pt x="338" y="340" on="1"/>
        <pt x="348" y="338" on="1"/>
        <pt x="451" y="514" on="0"/>
        <pt x="732" y="688" on="0"/>
        <pt x="922" y="688" on="1"/>
        <pt x="1067" y="688" on="0"/>
        <pt x="1282" y="588" on="0"/>
        <pt x="1401" y="405" on="0"/>
        <pt x="1401" y="291" on="1"/>
        <pt x="1401" y="146" on="0"/>
        <pt x="1254" y="-20" on="0"/>
        <pt x="1122" y="-20" on="1"/>
        <pt x="850" y="-20" on="0"/>
      </contour>
      <contour>
        <pt x="1245" y="260" on="1"/>
        <pt x="1243" y="299" on="1"/>
        <pt x="1178" y="338" on="0"/>
        <pt x="1120" y="338" on="1"/>
        <pt x="1064" y="338" on="0"/>
        <pt x="995" y="274" on="0"/>
        <pt x="995" y="219" on="1"/>
        <pt x="995" y="164" on="0"/>
        <pt x="1065" y="100" on="0"/>
        <pt x="1120" y="100" on="1"/>
        <pt x="1171" y="100" on="0"/>
        <pt x="1245" y="194" on="0"/>
      </contour>
    </TTGlyph>
    <TTGlyph name="uniA913" xMin="180" yMin="-20" xMax="1401" yMax="1462">
      <contour>
        <pt x="1225" y="1462" on="1"/>
        <pt x="1401" y="1462" on="1"/>
        <pt x="1401" y="557" on="1"/>
        <pt x="1401" y="314" on="0"/>
        <pt x="1297" y="79" on="0"/>
        <pt x="1041" y="-20" on="0"/>
        <pt x="782" y="-20" on="1"/>
        <pt x="533" y="-20" on="0"/>
        <pt x="286" y="83" on="0"/>
        <pt x="180" y="323" on="0"/>
        <pt x="180" y="557" on="1"/>
        <pt x="180" y="1098" on="1"/>
        <pt x="354" y="1098" on="1"/>
        <pt x="354" y="557" on="1"/>
        <pt x="354" y="371" on="0"/>
        <pt x="433" y="197" on="0"/>
        <pt x="616" y="123" on="0"/>
        <pt x="788" y="123" on="1"/>
        <pt x="971" y="123" on="0"/>
        <pt x="1151" y="196" on="0"/>
        <pt x="1225" y="368" on="0"/>
        <pt x="1225" y="557" on="1"/>
        <pt x="1225" y="956" on="1"/>
        <pt x="907" y="956" on="1"/>
        <pt x="907" y="1098" on="1"/>
        <pt x="1225" y="1098" on="1"/>
      </contour>
    </TTGlyph>
    <TTGlyph name="uniA914" xMin="180" yMin="-492" xMax="1401" yMax="1118">
      <contour>
        <pt x="1075" y="-346" on="1"/>
        <pt x="1075" y="-492" on="1"/>
        <pt x="793" y="-492" on="1"/>
        <pt x="531" y="-492" on="0"/>
        <pt x="284" y="-402" on="0"/>
        <pt x="180" y="-179" on="0"/>
        <pt x="180" y="70" on="1"/>
        <pt x="180" y="436" on="1"/>
        <pt x="526" y="436" on="1"/>
        <pt x="526" y="295" on="1"/>
        <pt x="365" y="295" on="1"/>
        <pt x="365" y="206" on="0"/>
        <pt x="572" y="123" on="0"/>
        <pt x="793" y="123" on="1"/>
        <pt x="909" y="123" on="0"/>
        <pt x="1079" y="143" on="0"/>
        <pt x="1172" y="181" on="0"/>
        <pt x="1219" y="244" on="0"/>
        <pt x="1219" y="299" on="1"/>
        <pt x="1219" y="372" on="0"/>
        <pt x="1105" y="447" on="0"/>
        <pt x="938" y="475" on="1"/>
        <pt x="514" y="547" on="1"/>
        <pt x="394" y="568" on="0"/>
        <pt x="261" y="629" on="0"/>
        <pt x="201" y="722" on="0"/>
        <pt x="201" y="813" on="1"/>
        <pt x="201" y="930" on="0"/>
        <pt x="321" y="1056" on="0"/>
        <pt x="578" y="1118" on="0"/>
        <pt x="793" y="1118" on="1"/>
        <pt x="1028" y="1118" on="0"/>
        <pt x="1269" y="1042" on="0"/>
        <pt x="1380" y="870" on="0"/>
        <pt x="1380" y="719" on="1"/>
        <pt x="1210" y="719" on="1"/>
        <pt x="1210" y="853" on="0"/>
        <pt x="1021" y="973" on="0"/>
        <pt x="786" y="973" on="1"/>
        <pt x="586" y="973" on="0"/>
        <pt x="383" y="908" on="0"/>
        <pt x="383" y="831" on="1"/>
        <pt x="383" y="766" on="0"/>
        <pt x="503" y="705" on="0"/>
        <pt x="643" y="684" on="1"/>
        <pt x="1020" y="623" on="1"/>
        <pt x="1169" y="598" on="0"/>
        <pt x="1331" y="524" on="0"/>
        <pt x="1401" y="409" on="0"/>
        <pt x="1401" y="297" on="1"/>
        <pt x="1401" y="177" on="0"/>
        <pt x="1274" y="45" on="0"/>
        <pt x="1004" y="-20" on="0"/>
        <pt x="784" y="-20" on="1"/>
        <pt x="569" y="-20" on="0"/>
        <pt x="374" y="40" on="0"/>
        <pt x="342" y="106" on="1"/>
        <pt x="334" y="104" on="1"/>
        <pt x="356" y="46" on="0"/>
        <pt x="365" y="-30" on="0"/>
        <pt x="365" y="-76" on="1"/>
        <pt x="365" y="-186" on="0"/>
        <pt x="442" y="-296" on="0"/>
        <pt x="619" y="-346" on="0"/>
        <pt x="793" y="-346" on="1"/>
      </contour>
    </TTGlyph>
    <TTGlyph name="uniA915" xMin="180" yMin="-20" xMax="1401" yMax="1118">
      <contour>
        <pt x="788" y="123" on="1"/>
        <pt x="965" y="123" on="0"/>
        <pt x="1147" y="179" on="0"/>
        <pt x="1229" y="309" on="0"/>
        <pt x="1229" y="426" on="1"/>
        <pt x="1401" y="426" on="1"/>
        <pt x="1401" y="262" on="0"/>
        <pt x="1279" y="69" on="0"/>
        <pt x="1019" y="-20" on="0"/>
        <pt x="782" y="-20" on="1"/>
        <pt x="533" y="-20" on="0"/>
        <pt x="286" y="83" on="0"/>
        <pt x="180" y="323" on="0"/>
        <pt x="180" y="557" on="1"/>
        <pt x="180" y="789" on="0"/>
        <pt x="286" y="1020" on="0"/>
        <pt x="535" y="1118" on="0"/>
        <pt x="793" y="1118" on="1"/>
        <pt x="1039" y="1118" on="0"/>
        <pt x="1283" y="1032" on="0"/>
        <pt x="1396" y="832" on="0"/>
        <pt x="1401" y="651" on="1"/>
        <pt x="363" y="482" on="1"/>
        <pt x="368" y="412" on="1"/>
        <pt x="386" y="247" on="0"/>
        <pt x="571" y="123" on="0"/>
      </contour>
      <contour>
        <pt x="1210" y="768" on="1"/>
        <pt x="1193" y="876" on="0"/>
        <pt x="1000" y="973" on="0"/>
        <pt x="786" y="973" on="1"/>
        <pt x="611" y="973" on="0"/>
        <pt x="441" y="917" on="0"/>
        <pt x="367" y="777" on="0"/>
        <pt x="363" y="631" on="1"/>
      </contour>
    </TTGlyph>
    <TTGlyph name="uniA916" xMin="180" yMin="-8" xMax="1468" yMax="1503">
      <contour>
        <pt x="1360" y="281" on="1"/>
        <pt x="1360" y="197" on="0"/>
        <pt x="1405" y="133" on="0"/>
        <pt x="1468" y="133" on="1"/>
        <pt x="1468" y="-8" on="1"/>
        <pt x="1354" y="-8" on="0"/>
        <pt x="1235" y="33" on="0"/>
        <pt x="1184" y="129" on="0"/>
        <pt x="1184" y="254" on="1"/>
        <pt x="1184" y="911" on="1"/>
        <pt x="1018" y="911" on="0"/>
        <pt x="702" y="780" on="0"/>
        <pt x="477" y="554" on="0"/>
        <pt x="356" y="239" on="0"/>
        <pt x="356" y="47" on="1"/>
        <pt x="356" y="0" on="1"/>
        <pt x="180" y="0" on="1"/>
        <pt x="180" y="942" on="1"/>
        <pt x="180" y="1190" on="0"/>
        <pt x="282" y="1413" on="0"/>
        <pt x="531" y="1503" on="0"/>
        <pt x="793" y="1503" on="1"/>
        <pt x="1023" y="1503" on="0"/>
        <pt x="1254" y="1450" on="0"/>
        <pt x="1358" y="1331" on="0"/>
        <pt x="1358" y="1219" on="1"/>
        <pt x="1171" y="1219" on="1"/>
        <pt x="1171" y="1277" on="0"/>
        <pt x="1105" y="1334" on="0"/>
        <pt x="952" y="1358" on="0"/>
        <pt x="795" y="1358" on="1"/>
        <pt x="606" y="1358" on="0"/>
        <pt x="431" y="1298" on="0"/>
        <pt x="356" y="1156" on="0"/>
        <pt x="356" y="1012" on="1"/>
        <pt x="356" y="739" on="1"/>
        <pt x="356" y="610" on="0"/>
        <pt x="338" y="516" on="1"/>
        <pt x="348" y="514" on="1"/>
        <pt x="369" y="586" on="0"/>
        <pt x="420" y="677" on="0"/>
        <pt x="477" y="739" on="1"/>
        <pt x="624" y="895" on="0"/>
        <pt x="998" y="1055" on="0"/>
        <pt x="1198" y="1055" on="1"/>
        <pt x="1360" y="1055" on="1"/>
      </contour>
    </TTGlyph>
    <TTGlyph name="uniA917" xMin="180" yMin="-20" xMax="1401" yMax="1098">
      <contour>
        <pt x="363" y="408" on="1"/>
        <pt x="784" y="733" on="1"/>
        <pt x="1218" y="414" on="1"/>
        <pt x="1225" y="477" on="0"/>
        <pt x="1225" y="557" on="1"/>
        <pt x="1225" y="1098" on="1"/>
        <pt x="1401" y="1098" on="1"/>
        <pt x="1401" y="557" on="1"/>
        <pt x="1401" y="314" on="0"/>
        <pt x="1297" y="79" on="0"/>
        <pt x="1041" y="-20" on="0"/>
        <pt x="782" y="-20" on="1"/>
        <pt x="533" y="-20" on="0"/>
        <pt x="286" y="83" on="0"/>
        <pt x="180" y="323" on="0"/>
        <pt x="180" y="557" on="1"/>
        <pt x="180" y="1098" on="1"/>
        <pt x="356" y="1098" on="1"/>
        <pt x="356" y="557" on="1"/>
        <pt x="356" y="475" on="0"/>
      </contour>
      <contour>
        <pt x="788" y="123" on="1"/>
        <pt x="959" y="123" on="0"/>
        <pt x="1137" y="186" on="0"/>
        <pt x="1175" y="256" on="1"/>
        <pt x="784" y="545" on="1"/>
        <pt x="408" y="257" on="1"/>
        <pt x="450" y="186" on="0"/>
        <pt x="628" y="123" on="0"/>
      </contour>
    </TTGlyph>
    <TTGlyph name="uniA918" xMin="180" yMin="0" xMax="1401" yMax="1098">
      <contour>
        <pt x="180" y="0" on="1"/>
        <pt x="180" y="156" on="1"/>
        <pt x="993" y="950" on="1"/>
        <pt x="221" y="950" on="1"/>
        <pt x="221" y="1098" on="1"/>
        <pt x="1339" y="1098" on="1"/>
        <pt x="1339" y="1071" on="1"/>
        <pt x="383" y="141" on="1"/>
        <pt x="569" y="141" on="1"/>
        <pt x="742" y="336" on="0"/>
        <pt x="1108" y="530" on="0"/>
        <pt x="1294" y="530" on="1"/>
        <pt x="1401" y="530" on="1"/>
        <pt x="1401" y="268" on="1"/>
        <pt x="1401" y="171" on="0"/>
        <pt x="1340" y="53" on="0"/>
        <pt x="1217" y="0" on="0"/>
        <pt x="1104" y="0" on="1"/>
      </contour>
      <contour>
        <pt x="1108" y="141" on="1"/>
        <pt x="1164" y="141" on="0"/>
        <pt x="1225" y="201" on="0"/>
        <pt x="1225" y="254" on="1"/>
        <pt x="1225" y="377" on="1"/>
        <pt x="1147" y="374" on="0"/>
        <pt x="1009" y="324" on="0"/>
        <pt x="882" y="246" on="0"/>
        <pt x="762" y="141" on="1"/>
      </contour>
    </TTGlyph>
    <TTGlyph name="uniA919" xMin="180" yMin="-20" xMax="1401" yMax="1118">
      <contour>
        <pt x="850" y="219" on="1"/>
        <pt x="850" y="459" on="0"/>
        <pt x="1118" y="459" on="1"/>
        <pt x="1168" y="459" on="0"/>
        <pt x="1225" y="436" on="1"/>
        <pt x="1225" y="981" on="1"/>
        <pt x="1057" y="981" on="0"/>
        <pt x="723" y="844" on="0"/>
        <pt x="485" y="616" on="0"/>
        <pt x="356" y="299" on="0"/>
        <pt x="356" y="109" on="1"/>
        <pt x="356" y="0" on="1"/>
        <pt x="180" y="0" on="1"/>
        <pt x="180" y="1098" on="1"/>
        <pt x="356" y="1098" on="1"/>
        <pt x="356" y="801" on="1"/>
        <pt x="356" y="672" on="0"/>
        <pt x="338" y="578" on="1"/>
        <pt x="348" y="575" on="1"/>
        <pt x="370" y="649" on="0"/>
        <pt x="424" y="743" on="0"/>
        <pt x="477" y="801" on="1"/>
        <pt x="617" y="948" on="0"/>
        <pt x="1031" y="1118" on="0"/>
        <pt x="1243" y="1118" on="1"/>
        <pt x="1401" y="1118" on="1"/>
        <pt x="1401" y="311" on="1"/>
        <pt x="1401" y="-20" on="0"/>
        <pt x="1122" y="-20" on="1"/>
        <pt x="850" y="-20" on="0"/>
      </contour>
      <contour>
        <pt x="1120" y="338" on="1"/>
        <pt x="1064" y="338" on="0"/>
        <pt x="995" y="274" on="0"/>
        <pt x="995" y="219" on="1"/>
        <pt x="995" y="164" on="0"/>
        <pt x="1065" y="100" on="0"/>
        <pt x="1120" y="100" on="1"/>
        <pt x="1225" y="100" on="0"/>
        <pt x="1225" y="281" on="1"/>
        <pt x="1225" y="312" on="1"/>
        <pt x="1215" y="319" on="0"/>
        <pt x="1153" y="338" on="0"/>
      </contour>
    </TTGlyph>
    <TTGlyph name="uniA91A" xMin="180" yMin="-492" xMax="1401" yMax="1118">
      <contour>
        <pt x="354" y="109" on="1"/>
        <pt x="354" y="0" on="1"/>
        <pt x="180" y="0" on="1"/>
        <pt x="180" y="1098" on="1"/>
        <pt x="354" y="1098" on="1"/>
        <pt x="354" y="801" on="1"/>
        <pt x="354" y="672" on="0"/>
        <pt x="336" y="578" on="1"/>
        <pt x="346" y="575" on="1"/>
        <pt x="368" y="649" on="0"/>
        <pt x="422" y="743" on="0"/>
        <pt x="475" y="801" on="1"/>
        <pt x="613" y="947" on="0"/>
        <pt x="1029" y="1118" on="0"/>
        <pt x="1243" y="1118" on="1"/>
        <pt x="1401" y="1118" on="1"/>
        <pt x="1401" y="-133" on="1"/>
        <pt x="1401" y="-492" on="0"/>
        <pt x="1065" y="-492" on="1"/>
        <pt x="1012" y="-492" on="1"/>
        <pt x="1012" y="-350" on="1"/>
        <pt x="1079" y="-350" on="1"/>
        <pt x="1145" y="-350" on="0"/>
        <pt x="1225" y="-257" on="0"/>
        <pt x="1225" y="-170" on="1"/>
        <pt x="1225" y="981" on="1"/>
        <pt x="1057" y="981" on="0"/>
        <pt x="721" y="844" on="0"/>
        <pt x="482" y="613" on="0"/>
        <pt x="354" y="299" on="0"/>
      </contour>
    </TTGlyph>
    <TTGlyph name="uniA91B" xMin="180" yMin="-20" xMax="1483" yMax="1116">
      <contour>
        <pt x="743" y="768" on="1"/>
        <pt x="743" y="947" on="0"/>
        <pt x="917" y="1116" on="0"/>
        <pt x="1110" y="1116" on="1"/>
        <pt x="1267" y="1116" on="0"/>
        <pt x="1418" y="1021" on="0"/>
        <pt x="1483" y="799" on="0"/>
        <pt x="1483" y="578" on="1"/>
        <pt x="1483" y="0" on="1"/>
        <pt x="1300" y="0" on="1"/>
        <pt x="1300" y="578" on="1"/>
        <pt x="1300" y="728" on="0"/>
        <pt x="1266" y="897" on="0"/>
        <pt x="1191" y="971" on="0"/>
        <pt x="1108" y="971" on="1"/>
        <pt x="918" y="971" on="0"/>
        <pt x="918" y="768" on="1"/>
        <pt x="918" y="328" on="1"/>
        <pt x="918" y="149" on="0"/>
        <pt x="740" y="-20" on="0"/>
        <pt x="547" y="-20" on="1"/>
        <pt x="391" y="-20" on="0"/>
        <pt x="243" y="75" on="0"/>
        <pt x="180" y="295" on="0"/>
        <pt x="180" y="518" on="1"/>
        <pt x="180" y="1096" on="1"/>
        <pt x="362" y="1096" on="1"/>
        <pt x="362" y="518" on="1"/>
        <pt x="362" y="363" on="0"/>
        <pt x="396" y="197" on="0"/>
        <pt x="471" y="125" on="0"/>
        <pt x="561" y="125" on="1"/>
        <pt x="649" y="125" on="0"/>
        <pt x="743" y="232" on="0"/>
        <pt x="743" y="328" on="1"/>
      </contour>
    </TTGlyph>
    <TTGlyph name="uniA91C" xMin="180" yMin="-492" xMax="1483" yMax="1116">
      <contour>
        <pt x="829" y="-492" on="1"/>
        <pt x="557" y="-492" on="0"/>
        <pt x="293" y="-441" on="0"/>
        <pt x="184" y="-315" on="0"/>
        <pt x="184" y="-186" on="1"/>
        <pt x="371" y="-186" on="1"/>
        <pt x="371" y="-250" on="0"/>
        <pt x="447" y="-313" on="0"/>
        <pt x="624" y="-340" on="0"/>
        <pt x="827" y="-340" on="1"/>
        <pt x="1022" y="-340" on="0"/>
        <pt x="1214" y="-281" on="0"/>
        <pt x="1298" y="-147" on="0"/>
        <pt x="1298" y="-20" on="1"/>
        <pt x="1298" y="43" on="0"/>
        <pt x="1307" y="90" on="1"/>
        <pt x="1298" y="94" on="1"/>
        <pt x="1267" y="28" on="0"/>
        <pt x="1174" y="-20" on="0"/>
        <pt x="1108" y="-20" on="1"/>
        <pt x="917" y="-20" on="0"/>
        <pt x="745" y="146" on="0"/>
        <pt x="745" y="328" on="1"/>
        <pt x="745" y="768" on="1"/>
        <pt x="745" y="971" on="0"/>
        <pt x="563" y="971" on="1"/>
        <pt x="473" y="971" on="0"/>
        <pt x="397" y="897" on="0"/>
        <pt x="362" y="730" on="0"/>
        <pt x="362" y="578" on="1"/>
        <pt x="362" y="0" on="1"/>
        <pt x="180" y="0" on="1"/>
        <pt x="180" y="578" on="1"/>
        <pt x="180" y="794" on="0"/>
        <pt x="247" y="1019" on="0"/>
        <pt x="401" y="1116" on="0"/>
        <pt x="561" y="1116" on="1"/>
        <pt x="752" y="1116" on="0"/>
        <pt x="920" y="951" on="0"/>
        <pt x="920" y="768" on="1"/>
        <pt x="920" y="328" on="1"/>
        <pt x="920" y="230" on="0"/>
        <pt x="1007" y="125" on="0"/>
        <pt x="1094" y="125" on="1"/>
        <pt x="1191" y="125" on="0"/>
        <pt x="1267" y="197" on="0"/>
        <pt x="1300" y="368" on="0"/>
        <pt x="1300" y="518" on="1"/>
        <pt x="1300" y="1096" on="1"/>
        <pt x="1483" y="1096" on="1"/>
        <pt x="1483" y="70" on="1"/>
        <pt x="1483" y="-163" on="0"/>
        <pt x="1369" y="-395" on="0"/>
        <pt x="1105" y="-492" on="0"/>
      </contour>
    </TTGlyph>
    <TTGlyph name="uniA91D" xMin="180" yMin="-20" xMax="1401" yMax="1462">
      <contour>
        <pt x="356" y="954" on="1"/>
        <pt x="356" y="557" on="1"/>
        <pt x="356" y="369" on="0"/>
        <pt x="434" y="197" on="0"/>
        <pt x="615" y="123" on="0"/>
        <pt x="788" y="123" on="1"/>
        <pt x="971" y="123" on="0"/>
        <pt x="1151" y="196" on="0"/>
        <pt x="1225" y="368" on="0"/>
        <pt x="1225" y="557" on="1"/>
        <pt x="1225" y="1098" on="1"/>
        <pt x="1401" y="1098" on="1"/>
        <pt x="1401" y="557" on="1"/>
        <pt x="1401" y="314" on="0"/>
        <pt x="1297" y="79" on="0"/>
        <pt x="1041" y="-20" on="0"/>
        <pt x="782" y="-20" on="1"/>
        <pt x="533" y="-20" on="0"/>
        <pt x="286" y="83" on="0"/>
        <pt x="180" y="323" on="0"/>
        <pt x="180" y="557" on="1"/>
        <pt x="180" y="1462" on="1"/>
        <pt x="356" y="1462" on="1"/>
        <pt x="356" y="1098" on="1"/>
        <pt x="674" y="1098" on="1"/>
        <pt x="674" y="954" on="1"/>
      </contour>
    </TTGlyph>
    <TTGlyph name="uniA91E" xMin="180" yMin="-492" xMax="1401" yMax="1118">
      <contour>
        <pt x="788" y="-492" on="1"/>
        <pt x="528" y="-492" on="0"/>
        <pt x="295" y="-445" on="0"/>
        <pt x="205" y="-329" on="0"/>
        <pt x="205" y="-186" on="1"/>
        <pt x="385" y="-186" on="1"/>
        <pt x="385" y="-259" on="0"/>
        <pt x="452" y="-321" on="0"/>
        <pt x="611" y="-348" on="0"/>
        <pt x="786" y="-348" on="1"/>
        <pt x="970" y="-348" on="0"/>
        <pt x="1143" y="-289" on="0"/>
        <pt x="1217" y="-148" on="0"/>
        <pt x="1217" y="0" on="1"/>
        <pt x="1217" y="48" on="0"/>
        <pt x="1225" y="90" on="1"/>
        <pt x="1217" y="94" on="1"/>
        <pt x="1183" y="44" on="0"/>
        <pt x="1098" y="-1" on="0"/>
        <pt x="955" y="-20" on="0"/>
        <pt x="782" y="-20" on="1"/>
        <pt x="533" y="-20" on="0"/>
        <pt x="286" y="83" on="0"/>
        <pt x="180" y="323" on="0"/>
        <pt x="180" y="557" on="1"/>
        <pt x="180" y="805" on="0"/>
        <pt x="282" y="1028" on="0"/>
        <pt x="531" y="1118" on="0"/>
        <pt x="793" y="1118" on="1"/>
        <pt x="1039" y="1118" on="0"/>
        <pt x="1284" y="1033" on="0"/>
        <pt x="1399" y="844" on="0"/>
        <pt x="1399" y="678" on="1"/>
        <pt x="1229" y="678" on="1"/>
        <pt x="1229" y="835" on="0"/>
        <pt x="1032" y="975" on="0"/>
        <pt x="786" y="975" on="1"/>
        <pt x="601" y="975" on="0"/>
        <pt x="431" y="911" on="0"/>
        <pt x="362" y="753" on="0"/>
        <pt x="362" y="557" on="1"/>
        <pt x="362" y="369" on="0"/>
        <pt x="436" y="197" on="0"/>
        <pt x="614" y="123" on="0"/>
        <pt x="788" y="123" on="1"/>
        <pt x="959" y="123" on="0"/>
        <pt x="1143" y="180" on="0"/>
        <pt x="1225" y="306" on="0"/>
        <pt x="1225" y="426" on="1"/>
        <pt x="1401" y="426" on="1"/>
        <pt x="1401" y="70" on="1"/>
        <pt x="1401" y="-178" on="0"/>
        <pt x="1298" y="-401" on="0"/>
        <pt x="1054" y="-492" on="0"/>
      </contour>
    </TTGlyph>
    <TTGlyph name="uniA91F" xMin="180" yMin="-492" xMax="1401" yMax="1098">
      <contour>
        <pt x="180" y="801" on="1"/>
        <pt x="180" y="953" on="0"/>
        <pt x="324" y="1098" on="0"/>
        <pt x="475" y="1098" on="1"/>
        <pt x="715" y="1098" on="1"/>
        <pt x="715" y="993" on="1"/>
        <pt x="715" y="794" on="0"/>
        <pt x="529" y="420" on="0"/>
        <pt x="356" y="266" on="1"/>
        <pt x="356" y="141" on="1"/>
        <pt x="527" y="141" on="0"/>
        <pt x="862" y="270" on="0"/>
        <pt x="1098" y="491" on="0"/>
        <pt x="1225" y="799" on="0"/>
        <pt x="1225" y="989" on="1"/>
        <pt x="1225" y="1098" on="1"/>
        <pt x="1401" y="1098" on="1"/>
        <pt x="1401" y="-133" on="1"/>
        <pt x="1401" y="-492" on="0"/>
        <pt x="1065" y="-492" on="1"/>
        <pt x="1012" y="-492" on="1"/>
        <pt x="1012" y="-350" on="1"/>
        <pt x="1079" y="-350" on="1"/>
        <pt x="1145" y="-350" on="0"/>
        <pt x="1225" y="-257" on="0"/>
        <pt x="1225" y="-170" on="1"/>
        <pt x="1225" y="297" on="1"/>
        <pt x="1225" y="426" on="0"/>
        <pt x="1243" y="520" on="1"/>
        <pt x="1233" y="522" on="1"/>
        <pt x="1213" y="452" on="0"/>
        <pt x="1160" y="357" on="0"/>
        <pt x="1104" y="297" on="1"/>
        <pt x="969" y="155" on="0"/>
        <pt x="565" y="-2" on="0"/>
        <pt x="342" y="-2" on="1"/>
        <pt x="180" y="-2" on="1"/>
      </contour>
      <contour>
        <pt x="356" y="457" on="1"/>
        <pt x="446" y="558" on="0"/>
        <pt x="552" y="824" on="0"/>
        <pt x="557" y="956" on="1"/>
        <pt x="461" y="956" on="1"/>
        <pt x="413" y="956" on="0"/>
        <pt x="356" y="891" on="0"/>
        <pt x="356" y="831" on="1"/>
      </contour>
    </TTGlyph>
    <TTGlyph name="uniA920" xMin="180" yMin="-20" xMax="1401" yMax="1098">
      <contour>
        <pt x="809" y="516" on="1"/>
        <pt x="764" y="516" on="1"/>
        <pt x="356" y="909" on="1"/>
        <pt x="356" y="514" on="1"/>
        <pt x="180" y="514" on="1"/>
        <pt x="180" y="1098" on="1"/>
        <pt x="381" y="1098" on="1"/>
        <pt x="786" y="705" on="1"/>
        <pt x="1200" y="1098" on="1"/>
        <pt x="1401" y="1098" on="1"/>
        <pt x="1401" y="541" on="1"/>
        <pt x="1401" y="293" on="0"/>
        <pt x="1299" y="70" on="0"/>
        <pt x="1050" y="-20" on="0"/>
        <pt x="788" y="-20" on="1"/>
        <pt x="553" y="-20" on="0"/>
        <pt x="318" y="32" on="0"/>
        <pt x="197" y="154" on="0"/>
        <pt x="182" y="264" on="1"/>
        <pt x="358" y="264" on="1"/>
        <pt x="370" y="189" on="0"/>
        <pt x="550" y="131" on="0"/>
        <pt x="786" y="131" on="1"/>
        <pt x="977" y="131" on="0"/>
        <pt x="1149" y="188" on="0"/>
        <pt x="1223" y="326" on="0"/>
        <pt x="1223" y="471" on="1"/>
        <pt x="1223" y="934" on="1"/>
      </contour>
    </TTGlyph>
    <TTGlyph name="uniA921" xMin="180" yMin="0" xMax="1401" yMax="1503">
      <contour>
        <pt x="180" y="1036" on="1"/>
        <pt x="356" y="1036" on="1"/>
        <pt x="1225" y="229" on="1"/>
        <pt x="1225" y="1012" on="1"/>
        <pt x="1225" y="1157" on="0"/>
        <pt x="1150" y="1297" on="0"/>
        <pt x="976" y="1358" on="0"/>
        <pt x="786" y="1358" on="1"/>
        <pt x="561" y="1358" on="0"/>
        <pt x="383" y="1297" on="0"/>
        <pt x="373" y="1219" on="1"/>
        <pt x="182" y="1219" on="1"/>
        <pt x="197" y="1330" on="0"/>
        <pt x="319" y="1451" on="0"/>
        <pt x="555" y="1503" on="0"/>
        <pt x="788" y="1503" on="1"/>
        <pt x="1051" y="1503" on="0"/>
        <pt x="1299" y="1413" on="0"/>
        <pt x="1401" y="1191" on="0"/>
        <pt x="1401" y="942" on="1"/>
        <pt x="1401" y="0" on="1"/>
        <pt x="1225" y="0" on="1"/>
        <pt x="356" y="817" on="1"/>
        <pt x="356" y="0" on="1"/>
        <pt x="180" y="0" on="1"/>
      </contour>
    </TTGlyph>
    <TTGlyph name="uniA922" xMin="180" yMin="-20" xMax="1401" yMax="1118">
      <contour>
        <pt x="643" y="500" on="1"/>
        <pt x="499" y="500" on="0"/>
        <pt x="362" y="409" on="0"/>
        <pt x="362" y="309" on="1"/>
        <pt x="362" y="235" on="0"/>
        <pt x="453" y="158" on="0"/>
        <pt x="639" y="123" on="0"/>
        <pt x="788" y="123" on="1"/>
        <pt x="967" y="123" on="0"/>
        <pt x="1148" y="178" on="0"/>
        <pt x="1229" y="306" on="0"/>
        <pt x="1229" y="426" on="1"/>
        <pt x="1401" y="426" on="1"/>
        <pt x="1401" y="260" on="0"/>
        <pt x="1284" y="67" on="0"/>
        <pt x="1037" y="-20" on="0"/>
        <pt x="797" y="-20" on="1"/>
        <pt x="575" y="-20" on="0"/>
        <pt x="306" y="45" on="0"/>
        <pt x="180" y="177" on="0"/>
        <pt x="180" y="297" on="1"/>
        <pt x="180" y="420" on="0"/>
        <pt x="281" y="538" on="0"/>
        <pt x="406" y="555" on="1"/>
        <pt x="406" y="563" on="1"/>
        <pt x="291" y="589" on="0"/>
        <pt x="201" y="694" on="0"/>
        <pt x="201" y="813" on="1"/>
        <pt x="201" y="930" on="0"/>
        <pt x="321" y="1056" on="0"/>
        <pt x="578" y="1118" on="0"/>
        <pt x="793" y="1118" on="1"/>
        <pt x="1040" y="1118" on="0"/>
        <pt x="1286" y="1033" on="0"/>
        <pt x="1401" y="842" on="0"/>
        <pt x="1401" y="678" on="1"/>
        <pt x="1231" y="678" on="1"/>
        <pt x="1229" y="837" on="0"/>
        <pt x="1029" y="975" on="0"/>
        <pt x="786" y="975" on="1"/>
        <pt x="581" y="975" on="0"/>
        <pt x="383" y="896" on="0"/>
        <pt x="383" y="807" on="1"/>
        <pt x="383" y="711" on="0"/>
        <pt x="501" y="629" on="0"/>
        <pt x="643" y="629" on="1"/>
      </contour>
    </TTGlyph>
    <TTGlyph name="uniA923" xMin="180" yMin="-18" xMax="1401" yMax="1098">
      <contour>
        <pt x="356" y="1098" on="1"/>
        <pt x="356" y="125" on="1"/>
        <pt x="525" y="125" on="0"/>
        <pt x="860" y="260" on="0"/>
        <pt x="1097" y="486" on="0"/>
        <pt x="1225" y="800" on="0"/>
        <pt x="1225" y="989" on="1"/>
        <pt x="1225" y="1098" on="1"/>
        <pt x="1401" y="1098" on="1"/>
        <pt x="1401" y="0" on="1"/>
        <pt x="1225" y="0" on="1"/>
        <pt x="1225" y="297" on="1"/>
        <pt x="1225" y="426" on="0"/>
        <pt x="1243" y="520" on="1"/>
        <pt x="1233" y="522" on="1"/>
        <pt x="1210" y="443" on="0"/>
        <pt x="1158" y="349" on="0"/>
        <pt x="1110" y="297" on="1"/>
        <pt x="975" y="152" on="0"/>
        <pt x="555" y="-18" on="0"/>
        <pt x="338" y="-18" on="1"/>
        <pt x="180" y="-18" on="1"/>
        <pt x="180" y="1098" on="1"/>
      </contour>
    </TTGlyph>
    <TTGlyph name="uniA924" xMin="180" yMin="-20" xMax="1401" yMax="1118">
      <contour>
        <pt x="793" y="975" on="1"/>
        <pt x="621" y="975" on="0"/>
        <pt x="436" y="918" on="0"/>
        <pt x="352" y="787" on="0"/>
        <pt x="352" y="672" on="1"/>
        <pt x="180" y="672" on="1"/>
        <pt x="180" y="837" on="0"/>
        <pt x="301" y="1029" on="0"/>
        <pt x="560" y="1118" on="0"/>
        <pt x="799" y="1118" on="1"/>
        <pt x="1048" y="1118" on="0"/>
        <pt x="1295" y="1015" on="0"/>
        <pt x="1401" y="775" on="0"/>
        <pt x="1401" y="541" on="1"/>
        <pt x="1401" y="309" on="0"/>
        <pt x="1297" y="78" on="0"/>
        <pt x="1045" y="-20" on="0"/>
        <pt x="788" y="-20" on="1"/>
        <pt x="561" y="-20" on="0"/>
        <pt x="344" y="20" on="0"/>
        <pt x="214" y="109" on="0"/>
        <pt x="184" y="188" on="1"/>
        <pt x="1102" y="913" on="1"/>
        <pt x="1011" y="975" on="0"/>
      </contour>
      <contour>
        <pt x="795" y="125" on="1"/>
        <pt x="982" y="125" on="0"/>
        <pt x="1150" y="188" on="0"/>
        <pt x="1219" y="342" on="0"/>
        <pt x="1219" y="541" on="1"/>
        <pt x="1219" y="707" on="0"/>
        <pt x="1191" y="791" on="1"/>
        <pt x="408" y="178" on="1"/>
        <pt x="455" y="152" on="0"/>
        <pt x="627" y="125" on="0"/>
      </contour>
    </TTGlyph>
    <TTGlyph name="uniA925" xMin="180" yMin="-20" xMax="1401" yMax="1118">
      <contour>
        <pt x="1401" y="557" on="1"/>
        <pt x="1401" y="314" on="0"/>
        <pt x="1297" y="79" on="0"/>
        <pt x="1041" y="-20" on="0"/>
        <pt x="782" y="-20" on="1"/>
        <pt x="533" y="-20" on="0"/>
        <pt x="286" y="83" on="0"/>
        <pt x="180" y="323" on="0"/>
        <pt x="180" y="557" on="1"/>
        <pt x="180" y="805" on="0"/>
        <pt x="282" y="1028" on="0"/>
        <pt x="531" y="1118" on="0"/>
        <pt x="793" y="1118" on="1"/>
        <pt x="1053" y="1118" on="0"/>
        <pt x="1301" y="1018" on="0"/>
        <pt x="1401" y="784" on="0"/>
      </contour>
      <contour>
        <pt x="784" y="580" on="1"/>
        <pt x="663" y="580" on="0"/>
        <pt x="441" y="643" on="0"/>
        <pt x="366" y="694" on="1"/>
        <pt x="362" y="634" on="0"/>
        <pt x="362" y="557" on="1"/>
        <pt x="362" y="369" on="0"/>
        <pt x="436" y="197" on="0"/>
        <pt x="614" y="123" on="0"/>
        <pt x="788" y="123" on="1"/>
        <pt x="968" y="123" on="0"/>
        <pt x="1145" y="194" on="0"/>
        <pt x="1219" y="362" on="0"/>
        <pt x="1219" y="557" on="1"/>
        <pt x="1219" y="632" on="0"/>
        <pt x="1212" y="691" on="1"/>
        <pt x="1129" y="642" on="0"/>
        <pt x="900" y="580" on="0"/>
      </contour>
      <contour>
        <pt x="786" y="973" on="1"/>
        <pt x="599" y="973" on="0"/>
        <pt x="426" y="907" on="0"/>
        <pt x="393" y="823" on="1"/>
        <pt x="484" y="778" on="0"/>
        <pt x="692" y="721" on="0"/>
        <pt x="784" y="721" on="1"/>
        <pt x="882" y="721" on="0"/>
        <pt x="1098" y="778" on="0"/>
        <pt x="1183" y="820" on="1"/>
        <pt x="1144" y="904" on="0"/>
        <pt x="970" y="973" on="0"/>
      </contour>
    </TTGlyph>
    <TTGlyph name="uniA926" xMin="-895" yMin="1251" xMax="-684" yMax="1464">
      <contour>
        <pt x="-895" y="1358" on="1"/>
        <pt x="-895" y="1464" on="0"/>
        <pt x="-788" y="1464" on="1"/>
        <pt x="-739" y="1464" on="0"/>
        <pt x="-684" y="1411" on="0"/>
        <pt x="-684" y="1358" on="1"/>
        <pt x="-684" y="1308" on="0"/>
        <pt x="-738" y="1251" on="0"/>
        <pt x="-788" y="1251" on="1"/>
        <pt x="-842" y="1251" on="0"/>
        <pt x="-895" y="1308" on="0"/>
      </contour>
    </TTGlyph>
    <TTGlyph name="uniA927" xMin="-1192" yMin="1155" xMax="-365" yMax="1503">
      <contour>
        <pt x="-1192" y="1503" on="1"/>
        <pt x="-365" y="1305" on="1"/>
        <pt x="-365" y="1155" on="1"/>
        <pt x="-1192" y="1352" on="1"/>
      </contour>
    </TTGlyph>
    <TTGlyph name="uniA928" xMin="-1192" yMin="1155" xMax="-365" yMax="1503">
      <contour>
        <pt x="-365" y="1305" on="1"/>
        <pt x="-365" y="1155" on="1"/>
        <pt x="-778" y="1354" on="1"/>
        <pt x="-1192" y="1155" on="1"/>
        <pt x="-1192" y="1305" on="1"/>
        <pt x="-778" y="1503" on="1"/>
      </contour>
    </TTGlyph>
    <TTGlyph name="uniA929" xMin="-1262" yMin="1190" xMax="-287" yMax="1556">
      <contour>
        <pt x="-1096" y="1556" on="1"/>
        <pt x="-1096" y="1456" on="0"/>
        <pt x="-1038" y="1359" on="0"/>
        <pt x="-906" y="1319" on="0"/>
        <pt x="-776" y="1319" on="1"/>
        <pt x="-642" y="1319" on="0"/>
        <pt x="-510" y="1361" on="0"/>
        <pt x="-453" y="1459" on="0"/>
        <pt x="-453" y="1556" on="1"/>
        <pt x="-287" y="1556" on="1"/>
        <pt x="-287" y="1433" on="0"/>
        <pt x="-337" y="1305" on="0"/>
        <pt x="-452" y="1227" on="0"/>
        <pt x="-641" y="1190" on="0"/>
        <pt x="-780" y="1190" on="1"/>
        <pt x="-912" y="1190" on="0"/>
        <pt x="-1094" y="1226" on="0"/>
        <pt x="-1207" y="1299" on="0"/>
        <pt x="-1262" y="1423" on="0"/>
        <pt x="-1262" y="1556" on="1"/>
      </contour>
    </TTGlyph>
    <TTGlyph name="uniA92A" xMin="-1262" yMin="1190" xMax="-287" yMax="1569">
      <contour>
        <pt x="-883" y="1462" on="1"/>
        <pt x="-883" y="1569" on="0"/>
        <pt x="-776" y="1569" on="1"/>
        <pt x="-726" y="1569" on="0"/>
        <pt x="-672" y="1514" on="0"/>
        <pt x="-672" y="1462" on="1"/>
        <pt x="-672" y="1411" on="0"/>
        <pt x="-727" y="1356" on="0"/>
        <pt x="-776" y="1356" on="1"/>
        <pt x="-883" y="1356" on="0"/>
      </contour>
      <contour>
        <pt x="-1096" y="1556" on="1"/>
        <pt x="-1096" y="1456" on="0"/>
        <pt x="-1038" y="1359" on="0"/>
        <pt x="-906" y="1319" on="0"/>
        <pt x="-776" y="1319" on="1"/>
        <pt x="-642" y="1319" on="0"/>
        <pt x="-510" y="1361" on="0"/>
        <pt x="-453" y="1459" on="0"/>
        <pt x="-453" y="1556" on="1"/>
        <pt x="-287" y="1556" on="1"/>
        <pt x="-287" y="1433" on="0"/>
        <pt x="-337" y="1305" on="0"/>
        <pt x="-452" y="1227" on="0"/>
        <pt x="-641" y="1190" on="0"/>
        <pt x="-780" y="1190" on="1"/>
        <pt x="-912" y="1190" on="0"/>
        <pt x="-1094" y="1226" on="0"/>
        <pt x="-1207" y="1299" on="0"/>
        <pt x="-1262" y="1423" on="0"/>
        <pt x="-1262" y="1556" on="1"/>
      </contour>
    </TTGlyph>
    <TTGlyph name="uniA92B" xMin="-895" yMin="-328" xMax="-684" yMax="-115">
      <contour>
        <pt x="-895" y="-221" on="1"/>
        <pt x="-895" y="-115" on="0"/>
        <pt x="-788" y="-115" on="1"/>
        <pt x="-739" y="-115" on="0"/>
        <pt x="-684" y="-168" on="0"/>
        <pt x="-684" y="-221" on="1"/>
        <pt x="-684" y="-271" on="0"/>
        <pt x="-738" y="-328" on="0"/>
        <pt x="-788" y="-328" on="1"/>
        <pt x="-842" y="-328" on="0"/>
        <pt x="-895" y="-271" on="0"/>
      </contour>
    </TTGlyph>
    <TTGlyph name="uniA92C" xMin="-1401" yMin="-492" xMax="-180" yMax="61">
      <contour>
        <pt x="-1034" y="61" on="1"/>
        <pt x="-1034" y="4" on="1"/>
        <pt x="-1135" y="-10" on="0"/>
        <pt x="-1225" y="-86" on="0"/>
        <pt x="-1225" y="-162" on="1"/>
        <pt x="-1225" y="-237" on="0"/>
        <pt x="-1135" y="-319" on="0"/>
        <pt x="-946" y="-362" on="0"/>
        <pt x="-793" y="-362" on="1"/>
        <pt x="-604" y="-362" on="0"/>
        <pt x="-425" y="-315" on="0"/>
        <pt x="-346" y="-207" on="0"/>
        <pt x="-346" y="-106" on="1"/>
        <pt x="-180" y="-106" on="1"/>
        <pt x="-180" y="-249" on="0"/>
        <pt x="-301" y="-417" on="0"/>
        <pt x="-554" y="-492" on="0"/>
        <pt x="-784" y="-492" on="1"/>
        <pt x="-1006" y="-492" on="0"/>
        <pt x="-1276" y="-427" on="0"/>
        <pt x="-1401" y="-294" on="0"/>
        <pt x="-1401" y="-174" on="1"/>
        <pt x="-1401" y="-54" on="0"/>
        <pt x="-1302" y="45" on="0"/>
        <pt x="-1176" y="61" on="1"/>
      </contour>
    </TTGlyph>
    <TTGlyph name="uniA92D" xMin="-1401" yMin="-492" xMax="-180" yMax="61">
      <contour>
        <pt x="-895" y="-180" on="1"/>
        <pt x="-895" y="-74" on="0"/>
        <pt x="-788" y="-74" on="1"/>
        <pt x="-739" y="-74" on="0"/>
        <pt x="-684" y="-127" on="0"/>
        <pt x="-684" y="-180" on="1"/>
        <pt x="-684" y="-230" on="0"/>
        <pt x="-738" y="-287" on="0"/>
        <pt x="-788" y="-287" on="1"/>
        <pt x="-842" y="-287" on="0"/>
        <pt x="-895" y="-230" on="0"/>
      </contour>
      <contour>
        <pt x="-1034" y="61" on="1"/>
        <pt x="-1034" y="4" on="1"/>
        <pt x="-1135" y="-10" on="0"/>
        <pt x="-1225" y="-86" on="0"/>
        <pt x="-1225" y="-162" on="1"/>
        <pt x="-1225" y="-237" on="0"/>
        <pt x="-1135" y="-319" on="0"/>
        <pt x="-946" y="-362" on="0"/>
        <pt x="-793" y="-362" on="1"/>
        <pt x="-604" y="-362" on="0"/>
        <pt x="-425" y="-315" on="0"/>
        <pt x="-346" y="-207" on="0"/>
        <pt x="-346" y="-106" on="1"/>
        <pt x="-180" y="-106" on="1"/>
        <pt x="-180" y="-249" on="0"/>
        <pt x="-301" y="-417" on="0"/>
        <pt x="-554" y="-492" on="0"/>
        <pt x="-784" y="-492" on="1"/>
        <pt x="-1006" y="-492" on="0"/>
        <pt x="-1276" y="-427" on="0"/>
        <pt x="-1401" y="-294" on="0"/>
        <pt x="-1401" y="-174" on="1"/>
        <pt x="-1401" y="-54" on="0"/>
        <pt x="-1302" y="45" on="0"/>
        <pt x="-1176" y="61" on="1"/>
      </contour>
    </TTGlyph>
    <TTGlyph name="uniA92E" xMin="78" yMin="473" xMax="1503" yMax="807">
      <contour>
        <pt x="78" y="494" on="1"/>
        <pt x="111" y="579" on="0"/>
        <pt x="314" y="724" on="0"/>
        <pt x="616" y="807" on="0"/>
        <pt x="784" y="807" on="1"/>
        <pt x="955" y="807" on="0"/>
        <pt x="1262" y="724" on="0"/>
        <pt x="1471" y="579" on="0"/>
        <pt x="1503" y="494" on="1"/>
        <pt x="1460" y="473" on="1"/>
        <pt x="1382" y="559" on="0"/>
        <pt x="1032" y="653" on="0"/>
        <pt x="788" y="653" on="1"/>
        <pt x="544" y="653" on="0"/>
        <pt x="200" y="560" on="0"/>
        <pt x="121" y="473" on="1"/>
      </contour>
    </TTGlyph>
    <TTGlyph name="uniA92F" xMin="180" yMin="2" xMax="352" yMax="1098">
      <contour>
        <pt x="352" y="2" on="1"/>
        <pt x="180" y="2" on="1"/>
        <pt x="180" y="1098" on="1"/>
        <pt x="352" y="1098" on="1"/>
      </contour>
    </TTGlyph>
</ttFont>
